<?xml version="1.0" encoding="UTF-8"?>
<svg id="Layer_1" xmlns="http://www.w3.org/2000/svg" version="1.1" viewBox="0 0 32 32">
  <defs>
  </defs>
  <path class="st0" d="M31.12,18.02l.88-.29v1.58c0,3.14,0,12.69-9.35,12.69h-5.18v-2.84c0-.46.01-.9.05-1.34.49-7.41,4.01-13.36,9.69-16.38-.19-6.64-2.71-6.64-4.55-6.64h-13.29c-1.85,0-4.36,0-4.55,6.64,5.68,3.02,9.2,8.97,9.69,16.39.04.43.05.87.05,1.33v2.84h-5.18C0,32,0,22.45,0,19.31v-1.58l.88.29c1.24.41,2.47,1.01,3.63,1.77l.29.19v.35c.2,6.35,2.26,6.87,4.55,6.87h.28c-.54-5.02-2.52-8.67-5.87-10.85-1.03-.67-2.14-1.21-3.31-1.62l-.45-.16v-2.96c.01-.35.03-.74.05-1.14C.53,1.82,5.38,0,9.35,0h13.29C26.62,0,31.47,1.82,31.95,10.48c.02.4.04.79.04,1.14v2.96s-.44.16-.44.16c-1.17.41-2.28.95-3.31,1.62-3.35,2.18-5.33,5.83-5.87,10.85h.28c2.28,0,4.35-.53,4.54-6.87v-.35s.3-.19.3-.19c1.17-.76,2.39-1.36,3.63-1.77Z"/>
</svg>